<svg xmlns="http://www.w3.org/2000/svg" version="1.1" xmlns:xlink="http://www.w3.org/1999/xlink" xmlns:svgjs="http://svgjs.dev/svgjs" width="1000" height="1000"><style>
    #light-icon {
      display: inline;
    }
    #dark-icon {
      display: none;
    }

    @media (prefers-color-scheme: dark) {
      #light-icon {
        display: none;
      }
      #dark-icon {
        display: inline;
      }
    }
  </style><g id="light-icon"><svg xmlns="http://www.w3.org/2000/svg" version="1.1" xmlns:xlink="http://www.w3.org/1999/xlink" xmlns:svgjs="http://svgjs.dev/svgjs" width="1000" height="1000"><g clip-path="url(#SvgjsClipPath1215)"><rect width="1000" height="1000" fill="#50c878"></rect><g transform="matrix(43.75,0,0,43.75,150,150)"><svg xmlns="http://www.w3.org/2000/svg" version="1.1" xmlns:xlink="http://www.w3.org/1999/xlink" xmlns:svgjs="http://svgjs.dev/svgjs" width="16" height="16"><svg xmlns="http://www.w3.org/2000/svg" width="16" height="16" fill="currentColor" class="bi bi-power" viewBox="0 0 16 16">
  <path d="M7.5 1v7h1V1z"></path>
  <path d="M3 8.812a5 5 0 0 1 2.578-4.375l-.485-.874A6 6 0 1 0 11 3.616l-.501.865A5 5 0 1 1 3 8.812"></path>
</svg></svg></g></g><defs><clipPath id="SvgjsClipPath1215"><rect width="1000" height="1000" x="0" y="0" rx="500" ry="500"></rect></clipPath></defs></svg></g><g id="dark-icon"><svg xmlns="http://www.w3.org/2000/svg" version="1.1" xmlns:xlink="http://www.w3.org/1999/xlink" xmlns:svgjs="http://svgjs.dev/svgjs" width="1000" height="1000"><g clip-path="url(#SvgjsClipPath1216)"><rect width="1000" height="1000" fill="#50c878"></rect><g transform="matrix(43.75,0,0,43.75,150,150)"><svg xmlns="http://www.w3.org/2000/svg" version="1.1" xmlns:xlink="http://www.w3.org/1999/xlink" xmlns:svgjs="http://svgjs.dev/svgjs" width="16" height="16"><svg xmlns="http://www.w3.org/2000/svg" width="16" height="16" fill="currentColor" class="bi bi-power" viewBox="0 0 16 16">
  <path d="M7.5 1v7h1V1z"></path>
  <path d="M3 8.812a5 5 0 0 1 2.578-4.375l-.485-.874A6 6 0 1 0 11 3.616l-.501.865A5 5 0 1 1 3 8.812"></path>
</svg></svg></g></g><defs><clipPath id="SvgjsClipPath1216"><rect width="1000" height="1000" x="0" y="0" rx="500" ry="500"></rect></clipPath></defs></svg></g></svg>